<svg width="40" height="40" viewBox="0 0 40 40" fill="none" xmlns="http://www.w3.org/2000/svg">
<path d="M39.5423 37.3321L28.257 26.0468C33.3987 19.791 33.0488 10.5043 27.2061 4.66166C20.9906 -1.55389 10.8772 -1.55389 4.66166 4.66166C-1.55389 10.8772 -1.55389 20.9906 4.66166 27.2061C10.5028 33.0472 19.7882 33.4009 26.0468 28.257L37.3321 39.5423C37.9424 40.1526 38.9319 40.1526 39.5422 39.5423C40.1526 38.9319 40.1526 37.9424 39.5423 37.3321ZM24.996 24.9959C19.9992 29.9928 11.8687 29.9927 6.87182 24.9959C1.87494 19.9991 1.87494 11.8686 6.87182 6.87174C11.8685 1.8751 19.999 1.87471 24.996 6.87174C29.9929 11.8686 29.9929 19.9991 24.996 24.9959Z" fill="#F3F3F3"/>
<path d="M23.5857 14.3711H17.4966V8.28205C17.4966 7.41893 16.7969 6.71924 15.9338 6.71924C15.0707 6.71924 14.371 7.41893 14.371 8.28205V14.3711H8.28193C7.4188 14.3711 6.71912 15.0708 6.71912 15.9339C6.71912 16.797 7.4188 17.4967 8.28193 17.4967H14.371V23.5858C14.371 24.4489 15.0707 25.1486 15.9338 25.1486C16.7969 25.1486 17.4966 24.4489 17.4966 23.5858V17.4967H23.5857C24.4488 17.4967 25.1485 16.797 25.1485 15.9339C25.1485 15.0708 24.4488 14.3711 23.5857 14.3711Z" fill="#F3F3F3"/>
</svg>
