<svg width="512" height="512" viewBox="0 0 512 512" fill="none" xmlns="http://www.w3.org/2000/svg">
<path fill-rule="evenodd" clip-rule="evenodd" d="M417.011 268.944C417.011 238.08 409.193 209.043 395.428 183.704C385.859 166.089 373.416 150.261 358.729 136.85C375.501 154.681 387.854 182.097 387.854 224.245C387.854 347.676 245.957 330.182 245.957 330.182V253.402H276.086C313.114 253.402 313.042 223.722 313.019 214.195C313.018 213.97 313.018 213.756 313.018 213.554C313.018 204.807 310.102 176.622 276.086 176.622C242.069 176.622 238.182 203.835 238.182 213.554V330.182L203.193 384.607V336.013C203.193 336.013 212.912 336.013 212.912 322.406C212.912 308.8 182.784 308.8 182.784 322.406C182.784 336.013 189.587 336.013 189.587 336.013V384.607L158.486 330.182V224.245C158.486 106.645 256.648 103.729 269.282 103.729C269.532 103.729 269.819 103.728 270.141 103.727C278.151 103.695 307.873 103.577 335.444 118.852C312.267 103.803 285.385 93.9754 256.467 91.0386C250.456 90.4281 244.357 90.1155 238.184 90.1154H238.184L238.183 90.1153C206.869 90.1153 177.436 98.1635 151.838 112.304C183.717 82.8459 226.342 64.8462 273.171 64.8462C371.935 64.8462 452 144.911 452 243.675C452 311.124 414.659 369.851 359.521 400.312C327.641 429.772 285.015 447.773 238.184 447.773C139.42 447.773 59.3555 367.709 59.3555 268.944C59.3555 201.495 96.6973 142.767 151.835 112.306C116.481 144.977 94.3421 191.741 94.3421 243.675C94.3421 342.44 174.407 422.504 273.171 422.504C304.484 422.504 333.918 414.456 359.516 400.315L359.517 400.315L359.516 400.315C394.872 367.644 417.011 320.88 417.011 268.944Z" fill="black"/>
</svg>
